<svg width="116" height="24" viewBox="0 0 116 24" fill="none" xmlns="http://www.w3.org/2000/svg">
<path d="M0.9 20L6.51 0.0499994L13.77 0.499999L17.67 20L14.97 20.45L12.9 15.47L4.92 16.13L3.9 20.45L0.9 20ZM7.83 3.83L5.46 13.82L12.24 13.88L8.07 3.83H7.83ZM27.4102 0.0499994C29.9702 0.0499994 32.0202 0.529999 33.5602 1.49C33.8002 2.27 33.9202 3.07 33.9202 3.89C33.9202 6.23 33.0302 8.65 31.2502 11.15C29.4902 13.65 27.3102 15.69 24.7102 17.27V17.54L34.1302 16.61V20H20.3602L20.1502 17.99C22.3102 16.97 24.1602 15.18 25.7002 12.62C27.2402 10.06 28.0102 7.69 28.0102 5.51C28.0102 3.81 27.4802 2.64 26.4202 2L21.8602 5.09L20.3002 1.85C21.3802 1.25 22.4302 0.799999 23.4502 0.499999C24.4902 0.199999 25.8102 0.0499994 27.4102 0.0499994ZM37.7332 0.469999L53.0632 0.0499994L52.9732 2.06L48.7732 2.48L46.9132 20.12L43.6132 20.42L42.1132 3.14L37.9132 3.56L37.7332 0.469999ZM65.0154 10.13C63.6554 10.13 62.6254 10.61 61.9254 11.57C61.2254 12.51 60.7154 14.25 60.3954 16.79L59.9754 20.18L57.0054 20.45L55.4754 5.57L61.8954 4.58L61.2954 9.38H61.5054C63.1054 5.94 65.1454 4.11 67.6254 3.89L66.7854 10.28C66.0454 10.18 65.4554 10.13 65.0154 10.13ZM71.6672 20.69C71.3272 20.69 71.0772 20.68 70.9172 20.66C70.2372 20.2 69.6872 19.52 69.2672 18.62C68.8672 17.7 68.6672 16.75 68.6672 15.77C68.6672 14.49 69.1472 13.56 70.1072 12.98C71.0872 12.4 72.8772 12.11 75.4772 12.11C76.4372 12.11 77.4372 12.18 78.4772 12.32L78.4172 11.66C78.3372 10.86 77.9572 10.23 77.2772 9.77C76.5972 9.29 75.7272 9.05 74.6672 9.05C73.6072 9.05 72.5472 9.38 71.4872 10.04L70.1672 5.69C71.8872 4.99 73.8472 4.64 76.0472 4.64C78.2472 4.64 79.9872 5.14 81.2672 6.14C82.5472 7.12 83.1872 8.66 83.1872 10.76C83.1872 11.24 83.1672 11.62 83.1272 11.9L82.2872 20.18L79.3172 20.45L78.8672 16.1H78.6272C77.9472 17.54 77.0072 18.67 75.8072 19.49C74.6072 20.29 73.2272 20.69 71.6672 20.69ZM78.5972 13.58L77.0072 13.55C75.6872 13.55 74.6072 13.62 73.7672 13.76C73.4872 14.32 73.3472 14.82 73.3472 15.26C73.3472 15.7 73.4072 16.12 73.5272 16.52C73.6472 16.92 73.7772 17.19 73.9172 17.33C76.3172 16.95 77.8772 15.7 78.5972 13.58ZM98.9095 4.31C99.2895 4.31 99.6595 4.37 100.02 4.49C101.04 5.73 101.74 7.88 102.12 10.94C102.5 13.98 102.69 17 102.69 20L97.2895 20.45C97.2895 15.85 97.1195 11.66 96.7795 7.88C94.1195 8.86 92.3495 12.96 91.4695 20.18L88.4995 20.45L86.9695 5.57L93.3895 4.58L92.7295 9.86H92.9995C93.7995 8.12 94.7095 6.76 95.7295 5.78C96.7495 4.8 97.8095 4.31 98.9095 4.31ZM106.624 10.13C106.624 7.57 107.974 5.23 110.674 3.11L115.594 6.41C113.374 7.83 112.264 9.32 112.264 10.88C112.264 11.7 112.714 12.77 113.614 14.09C114.534 15.41 114.994 16.44 114.994 17.18C114.994 19.8 113.194 21.82 109.594 23.24L108.274 21.47C109.854 20.61 110.644 19.66 110.644 18.62C110.644 17.64 109.974 16.4 108.634 14.9C108.134 14.34 107.674 13.63 107.254 12.77C106.834 11.91 106.624 11.03 106.624 10.13Z" fill="white"/>
</svg>
